<mxfile host="app.diagrams.net" modified="2024-02-29T17:21:43.110Z" agent="Mozilla/5.0 (Macintosh; Intel Mac OS X 10_15_7) AppleWebKit/537.36 (KHTML, like Gecko) Chrome/121.0.0.0 Safari/537.36" version="24.0.0" etag="pzb_v7JAhh9-q8UYvbn7" type="github">
  <diagram name="Page-1" id="TDB58VjSV71MduL4eVMA">
    <mxGraphModel>
      <root>
        <mxCell id="0" />
        <mxCell id="1" parent="0" />
      </root>
    </mxGraphModel>
  </diagram>
</mxfile>
